<svg xmlns="http://www.w3.org/2000/svg" xmlns:v="https://svgstorm.com"
viewBox = "0 0 216 182"
width="216"
height="182">
<g fill="None" fill-opacity="0.0" stroke="#000000" stroke-opacity="0.00" stroke-width="0.3"><path d="
M 0.00 182.00 
L 216.00 182.00
L 216.00 0.00
L 115.00 0.00
C 116.62 1.45 119.32 1.64 121.00 3.00
C 121.30 3.24 122.00 3.00 122.00 3.00
C 124.36 3.55 126.24 4.53 128.00 6.00
C 128.28 6.23 128.77 6.72 129.00 7.00
C 132.15 8.12 135.37 9.66 137.00 13.00
C 137.20 13.40 137.00 14.00 137.00 14.00
C 139.57 14.66 139.00 15.81 140.00 18.00
C 145.35 25.62 149.06 40.94 147.00 51.00
C 147.08 51.26 146.35 51.97 146.00 52.00
C 146.30 55.32 145.93 57.92 147.00 61.00
C 149.67 60.75 153.05 61.09 156.00 61.00
C 156.58 60.75 158.74 59.44 159.00 59.00
C 161.18 55.38 158.30 50.26 162.75 47.75 C 167.21 45.25 167.99 41.78 170.00 38.00
C 175.36 39.69 178.87 32.90 183.25 32.20 C 187.62 31.50 193.41 30.86 198.00 28.00
C 199.85 27.38 199.21 27.40 201.00 28.00
C 209.98 29.29 208.68 40.70 208.60 47.74 C 208.51 54.79 208.20 64.26 208.00 71.00
C 208.14 72.91 208.07 76.21 208.00 78.00
C 209.49 99.39 204.09 133.15 186.00 147.00
C 184.71 148.67 184.78 150.77 182.75 152.75 C 180.72 154.74 179.02 154.55 178.00 155.00
C 169.15 162.64 152.05 156.34 142.00 150.00
C 140.83 149.26 140.18 149.00 139.00 148.00
C 137.76 146.95 136.88 146.37 136.00 145.00
C 133.94 141.80 131.60 136.33 130.23 132.77 C 128.86 129.21 124.64 122.67 127.00 120.00
C 125.89 119.22 124.41 118.71 123.00 119.00
C 122.20 119.16 121.85 119.85 121.00 120.00
C 120.52 120.09 120.00 120.00 120.00 120.00
C 119.42 120.55 118.51 121.47 118.00 122.00
C 118.18 122.42 118.00 123.00 118.00 123.00
C 118.00 126.93 118.68 130.36 119.00 134.00
C 119.65 141.44 117.61 150.92 118.00 158.00 C 118.39 165.08 121.22 172.69 115.00 177.00
C 110.97 179.80 96.61 180.75 97.00 173.00
C 97.02 172.50 97.00 172.00 97.00 172.00
C 94.43 168.53 95.46 156.62 97.00 153.00
C 97.18 152.58 96.96 151.50 97.00 151.00
C 95.35 147.12 96.00 141.61 96.00 137.00
C 96.00 135.70 95.84 134.28 96.00 133.00
C 96.27 130.82 97.42 128.20 98.00 126.00
C 97.88 122.20 95.38 118.39 91.00 121.00
C 94.11 128.22 79.72 142.91 72.00 148.00
C 70.64 149.40 72.54 148.83 70.00 150.00
C 68.77 151.50 53.56 160.85 48.00 159.00
C 46.46 159.01 45.92 159.35 44.00 159.00
C 40.51 158.36 38.64 157.91 37.00 155.00
C 36.68 154.80 36.20 154.32 36.00 154.00
C 35.59 153.81 35.00 154.00 35.00 154.00
C 31.59 152.33 26.92 147.15 25.00 144.00
C 24.76 143.60 24.28 142.25 24.00 142.00
C 21.49 139.82 21.45 139.56 20.00 136.00
C 19.05 135.04 18.93 135.41 18.00 134.00
C 10.70 122.95 9.96 110.02 6.00 99.00
C 5.65 98.02 5.13 97.47 5.00 96.00
C 4.69 92.39 5.00 88.62 5.00 85.00
C 4.84 84.27 4.11 83.26 4.00 82.00
C 3.83 80.03 4.00 77.97 4.00 76.00
C 4.00 75.50 4.00 74.50 4.00 74.00
C 4.01 72.49 4.81 71.88 5.00 71.00
C 5.62 63.79 5.00 56.24 5.00 49.00
C 4.87 47.50 4.87 45.44 5.00 44.00
C 5.00 31.53 3.59 24.25 18.00 27.00
C 22.91 27.94 26.03 29.70 31.22 30.78 C 36.42 31.86 39.49 37.80 44.00 39.00
C 44.47 39.12 45.00 39.00 45.00 39.00
C 47.49 38.87 47.27 40.34 48.00 42.00
C 48.27 42.60 48.67 43.47 49.00 44.00
C 50.90 47.05 52.45 50.09 56.00 50.00
C 53.32 53.56 59.77 55.15 58.00 58.00
C 59.53 58.22 60.09 60.68 61.00 61.00
C 62.67 61.00 64.33 61.00 66.00 61.00
C 67.01 59.64 67.34 59.74 68.00 58.00
C 68.30 51.67 67.39 43.94 68.00 37.00
C 68.24 34.24 68.49 28.38 70.00 26.00
C 70.54 25.16 71.34 24.82 72.00 24.00
C 72.41 23.31 71.97 21.38 74.00 20.00
C 74.16 19.56 74.00 19.00 74.00 19.00
C 74.88 16.76 75.96 14.28 78.00 13.00
C 78.22 12.86 78.00 12.00 78.00 12.00
C 78.88 10.21 80.49 9.07 82.00 8.00
C 83.32 7.06 84.81 6.74 86.00 6.00
C 90.34 3.31 94.11 2.15 96.00 0.00
L 0.00 0.00
L 0.00 182.00
M 193.00 28.00 
C 193.74 28.74 192.18 27.18 193.00 28.00 Z"/>
</g>
<g fill="None" fill-opacity="0.0" stroke="#7D348D" stroke-opacity="0.98" stroke-width="0.3"><path d="
M 86.00 6.00 
C 85.81 6.21 79.77 14.86 78.00 13.00
C 75.96 14.28 74.88 16.76 74.00 19.00
C 77.76 16.48 72.07 26.66 71.00 28.00
C 70.97 28.50 71.00 29.00 71.00 29.00
C 71.00 30.00 71.00 31.00 71.00 32.00
C 71.00 42.11 70.94 53.99 71.00 63.00
C 72.18 60.66 74.66 58.21 74.00 55.00
C 80.08 56.82 83.65 52.95 88.00 56.00
C 88.00 45.54 87.61 30.91 97.25 24.25 C 106.89 17.59 121.44 22.71 124.33 33.67 C 127.21 44.63 128.18 59.83 127.00 72.00
C 127.13 73.00 126.52 74.73 128.00 75.00
C 126.75 58.39 150.02 71.36 155.00 64.00
C 153.39 64.51 148.13 64.46 147.00 63.00
C 142.65 64.25 144.87 57.66 145.00 56.00
C 144.77 50.43 144.00 43.29 144.00 37.00
C 144.00 31.63 143.98 27.44 142.00 23.00
C 138.42 17.45 131.60 9.56 128.00 6.00
C 126.24 4.53 124.36 3.55 122.00 3.00
C 124.31 6.44 116.84 3.85 121.00 3.00
C 119.32 1.64 116.62 1.45 115.00 0.00
L 96.00 0.00
C 94.11 2.15 90.34 3.31 86.00 6.00 Z"/>
</g>
<g fill="None" fill-opacity="0.0" stroke="#553861" stroke-opacity="0.57" stroke-width="0.3"><path d="
M 122.00 3.00 
C 122.00 3.00 121.30 3.24 121.00 3.00
C 116.84 3.85 124.31 6.44 122.00 3.00 Z"/>
</g>
<g fill="None" fill-opacity="0.0" stroke="#41164A" stroke-opacity="0.37" stroke-width="0.3"><path d="
M 82.00 8.00 
C 80.57 9.20 79.59 10.89 78.00 12.00
C 78.00 12.00 78.22 12.86 78.00 13.00
C 79.77 14.86 85.81 6.21 86.00 6.00
C 84.81 6.74 83.32 7.06 82.00 8.00 Z"/>
</g>
<g fill="None" fill-opacity="0.0" stroke="#5F3B68" stroke-opacity="0.59" stroke-width="0.3"><path d="
M 142.00 23.00 
C 141.29 21.41 140.73 19.60 140.00 18.00
C 139.00 15.81 139.57 14.66 137.00 14.00
C 134.68 13.03 133.73 10.35 132.00 9.00
C 130.78 8.22 129.88 8.09 129.00 7.00
C 128.77 6.72 128.28 6.23 128.00 6.00
C 131.60 9.56 138.42 17.45 142.00 23.00 Z"/>
</g>
<g fill="None" fill-opacity="0.0" stroke="#3D083E" stroke-opacity="0.11" stroke-width="0.3"><path d="
M 132.00 9.00 
C 133.80 10.15 135.29 11.81 137.00 13.00
C 135.37 9.66 132.15 8.12 129.00 7.00
C 129.88 8.09 130.78 8.22 132.00 9.00 Z"/>
</g>
<g fill="None" fill-opacity="0.0" stroke="#E366E0" stroke-opacity="0.01" stroke-width="0.3"><path d="
M 78.00 12.00 
C 79.59 10.89 80.57 9.20 82.00 8.00
C 80.49 9.07 78.88 10.21 78.00 12.00 Z"/>
</g>
<g fill="None" fill-opacity="0.0" stroke="#3B1A40" stroke-opacity="0.30" stroke-width="0.3"><path d="
M 137.00 14.00 
C 137.00 14.00 137.20 13.40 137.00 13.00
C 135.29 11.81 133.80 10.15 132.00 9.00
C 133.73 10.35 134.68 13.03 137.00 14.00 Z"/>
</g>
<g fill="None" fill-opacity="0.0" stroke="#58355F" stroke-opacity="0.53" stroke-width="0.3"><path d="
M 74.00 19.00 
C 74.00 19.00 74.16 19.56 74.00 20.00
C 73.58 21.18 72.78 23.04 72.00 24.00
C 71.34 24.82 70.54 25.16 70.00 26.00
C 70.00 26.08 71.05 27.25 71.00 28.00
C 72.07 26.66 77.76 16.48 74.00 19.00 Z"/>
</g>
<g fill="None" fill-opacity="0.0" stroke="#4C1451" stroke-opacity="0.16" stroke-width="0.3"><path d="
M 142.00 23.00 
C 143.98 27.44 144.00 31.63 144.00 37.00
C 144.17 38.75 144.95 41.60 145.00 44.00
C 145.21 45.72 146.50 49.34 147.00 51.00
C 149.06 40.94 145.35 25.62 140.00 18.00
C 140.73 19.60 141.29 21.41 142.00 23.00 Z"/>
</g>
<g fill="None" fill-opacity="0.0" stroke="#581557" stroke-opacity="0.05" stroke-width="0.3"><path d="
M 72.00 24.00 
C 72.78 23.04 73.58 21.18 74.00 20.00
C 71.97 21.38 72.41 23.31 72.00 24.00 Z"/>
</g>
<g fill="None" fill-opacity="0.0" stroke="#210630" stroke-opacity="1.00" stroke-width="0.3"><path d="
M 88.00 56.00 
C 88.00 69.94 84.10 88.94 100.03 95.97 C 115.95 103.01 125.65 85.98 127.00 72.00
C 128.18 59.83 127.21 44.63 124.33 33.67 C 121.44 22.71 106.89 17.59 97.25 24.25 C 87.61 30.91 88.00 45.54 88.00 56.00
M 122.00 33.00 
C 125.63 47.14 122.72 61.48 123.00 76.00 C 123.28 90.52 109.74 96.19 98.00 92.00
C 90.27 76.17 88.80 51.34 94.00 35.00
C 97.28 41.28 94.28 29.62 97.00 27.00
C 105.86 22.72 115.37 26.57 122.00 33.00 Z"/>
</g>
<g fill="None" fill-opacity="0.0" stroke="#100C1F" stroke-opacity="1.00" stroke-width="0.3"><path d="
M 122.00 33.00 
C 115.37 26.57 105.86 22.72 97.00 27.00
C 94.28 29.62 97.28 41.28 94.00 35.00
C 88.80 51.34 90.27 76.17 98.00 92.00
C 109.74 96.19 123.28 90.52 123.00 76.00 C 122.72 61.48 125.63 47.14 122.00 33.00 Z"/>
</g>
<g fill="None" fill-opacity="0.0" stroke="#201F2A" stroke-opacity="0.56" stroke-width="0.3"><path d="
M 5.00 44.00 
C 5.00 45.67 5.00 47.33 5.00 49.00
C 5.00 56.24 5.62 63.79 5.00 71.00
C 4.88 72.43 4.24 73.11 4.00 74.00
C 4.00 74.50 4.00 75.50 4.00 76.00
C 4.75 77.87 5.04 79.55 5.00 82.00
C 4.98 83.00 5.00 84.00 5.00 85.00
C 5.00 88.62 4.69 92.39 5.00 96.00
C 5.12 96.54 6.81 97.82 6.00 99.00
C 6.08 93.03 7.67 87.29 7.00 80.00 C 6.33 72.71 7.83 65.64 7.00 58.00 C 6.17 50.36 8.55 44.19 7.00 36.00 C 5.45 27.81 13.56 27.51 18.00 27.00
C 3.59 24.25 5.00 31.53 5.00 44.00 Z"/>
</g>
<g fill="None" fill-opacity="0.0" stroke="#542161" stroke-opacity="0.13" stroke-width="0.3"><path d="
M 68.00 37.00 
C 68.14 36.60 69.91 35.32 70.00 35.00
C 70.00 34.01 69.95 32.99 70.00 32.00
C 70.09 30.30 69.95 30.13 71.00 29.00
C 71.00 29.00 70.97 28.50 71.00 28.00
C 71.05 27.25 70.00 26.08 70.00 26.00
C 68.49 28.38 68.24 34.24 68.00 37.00 Z"/>
</g>
<g fill="None" fill-opacity="0.0" stroke="#1B1727" stroke-opacity="0.96" stroke-width="0.3"><path d="
M 6.00 99.00 
C 9.96 110.02 10.70 122.95 18.00 134.00
C 18.00 134.01 19.73 135.34 20.00 136.00
C 21.45 139.56 21.49 139.82 24.00 142.00
C 28.02 145.48 33.20 149.47 36.00 154.00
C 36.20 154.32 36.68 154.80 37.00 155.00
C 38.06 155.66 38.96 155.54 40.00 156.00
C 40.73 155.89 42.40 154.08 42.00 153.00
C 27.90 142.82 14.89 128.75 11.25 108.75 C 7.60 88.76 9.17 57.76 12.00 38.00
C 15.38 40.16 18.62 36.91 22.74 39.26 C 26.87 41.60 29.50 42.82 34.00 44.00
C 34.85 46.42 32.13 47.35 37.00 47.00
C 42.27 55.11 40.45 65.22 39.01 75.01 C 37.57 84.79 45.45 96.65 40.00 105.00
C 54.62 103.01 70.57 113.69 69.98 129.02 C 69.38 144.36 57.63 152.83 45.00 158.00
C 46.75 157.79 46.92 158.64 48.00 159.00
C 53.56 160.85 68.77 151.50 70.00 150.00
C 70.77 149.06 70.99 148.67 72.00 148.00
C 79.72 142.91 94.11 128.22 91.00 121.00
C 90.82 120.58 91.00 120.00 91.00 120.00
C 83.64 127.50 76.34 106.87 68.00 109.00
C 69.30 103.97 64.04 102.04 60.00 103.00
C 59.80 95.03 52.13 88.41 51.22 80.78 C 50.31 73.14 46.85 59.18 58.00 59.00
C 57.81 58.59 58.00 58.00 58.00 58.00
C 59.77 55.15 53.32 53.56 56.00 50.00
C 52.45 50.09 50.90 47.05 49.00 44.00
C 47.48 42.25 44.96 41.30 44.00 39.00
C 39.49 37.80 36.42 31.86 31.22 30.78 C 26.03 29.70 22.91 27.94 18.00 27.00
C 13.56 27.51 5.45 27.81 7.00 36.00 C 8.55 44.19 6.17 50.36 7.00 58.00 C 7.83 65.64 6.33 72.71 7.00 80.00 C 7.67 87.29 6.08 93.03 6.00 99.00 Z"/>
</g>
<g fill="None" fill-opacity="0.0" stroke="#494949" stroke-opacity="0.02" stroke-width="0.3"><path d="
M 198.00 28.00 
C 198.84 27.88 200.16 27.88 201.00 28.00
C 199.21 27.40 199.85 27.38 198.00 28.00 Z"/>
</g>
<g fill="None" fill-opacity="0.0" stroke="#FFFFFF" stroke-opacity="0.00" stroke-width="0.3"><path d="
M 193.00 28.00 
C 192.18 27.18 193.74 28.74 193.00 28.00 Z"/>
</g>
<g fill="None" fill-opacity="0.0" stroke="#1B1927" stroke-opacity="0.95" stroke-width="0.3"><path d="
M 159.00 59.00 
C 161.16 58.74 161.52 65.16 165.00 64.00
C 165.00 69.33 165.00 74.67 165.00 80.00
C 159.21 82.60 160.00 91.57 156.68 97.68 C 153.36 103.79 148.80 106.13 143.75 110.75 C 138.70 115.37 134.63 120.07 127.00 120.00
C 124.64 122.67 128.86 129.21 130.23 132.77 C 131.60 136.33 133.94 141.80 136.00 145.00
C 134.21 143.36 138.33 144.62 139.25 145.75 C 140.17 146.88 142.32 150.32 142.00 150.00
C 152.05 156.34 169.15 162.64 178.00 155.00
C 180.67 152.70 183.03 149.27 186.00 147.00
C 204.09 133.15 209.49 99.39 208.00 78.00
C 207.84 75.71 207.93 73.30 208.00 71.00
C 208.20 64.26 208.51 54.79 208.60 47.74 C 208.68 40.70 209.98 29.29 201.00 28.00
C 200.16 27.88 198.84 27.88 198.00 28.00
C 193.41 30.86 187.62 31.50 183.25 32.20 C 178.87 32.90 175.36 39.69 170.00 38.00
C 167.99 41.78 167.21 45.25 162.75 47.75 C 158.30 50.26 161.18 55.38 159.00 59.00
M 205.00 38.00 
C 205.40 79.08 206.28 124.36 176.00 154.00
C 170.28 153.64 165.08 151.05 159.00 152.00
C 157.92 147.05 153.28 144.91 151.67 140.33 C 150.07 135.74 148.44 132.82 147.00 128.00
C 158.65 131.03 164.82 120.98 168.33 112.33 C 171.83 103.68 175.97 92.69 175.00 82.00 C 174.03 71.31 175.94 59.56 176.00 49.00
C 187.11 48.59 194.28 35.69 205.00 38.00 Z"/>
</g>
<g fill="None" fill-opacity="0.0" stroke="#71447B" stroke-opacity="0.64" stroke-width="0.3"><path d="
M 70.00 32.00 
C 70.27 31.75 71.00 32.00 71.00 32.00
C 71.00 31.00 71.00 30.00 71.00 29.00
C 69.95 30.13 70.09 30.30 70.00 32.00 Z"/>
</g>
<g fill="None" fill-opacity="0.0" stroke="#591777" stroke-opacity="0.98" stroke-width="0.3"><path d="
M 70.00 35.00 
C 70.00 38.89 70.23 46.48 70.00 50.00 C 69.77 53.52 71.85 62.50 67.00 62.00
C 65.42 63.63 59.87 63.92 59.00 61.00
C 58.77 60.66 59.00 60.00 59.00 60.00
C 57.56 61.47 56.20 62.31 54.00 63.00
C 52.76 72.04 55.33 82.55 58.98 90.02 C 62.62 97.50 68.54 101.71 73.70 107.30 C 78.85 112.90 88.99 115.48 91.00 120.00
C 91.00 120.00 90.82 120.58 91.00 121.00
C 95.38 118.39 97.88 122.20 98.00 126.00
C 98.33 124.75 97.75 123.27 98.00 122.00
C 99.78 126.08 99.76 133.31 97.00 137.00
C 97.36 141.01 97.74 145.21 98.00 149.00
C 98.16 151.32 97.88 153.67 98.00 156.00
C 96.61 155.74 97.22 153.95 97.00 153.00
C 95.46 156.62 94.43 168.53 97.00 172.00
C 95.93 171.90 98.01 167.66 98.00 170.00
C 99.25 170.14 100.07 174.84 97.00 173.00
C 96.61 180.75 110.97 179.80 115.00 177.00
C 115.06 176.95 116.18 169.93 116.00 165.00 C 115.82 160.07 115.91 152.43 116.00 147.00 C 116.09 141.57 115.58 134.54 116.00 129.00
C 116.19 126.53 115.34 124.21 118.00 123.00
C 118.00 123.00 118.18 122.42 118.00 122.00
C 117.37 120.50 118.55 119.38 120.00 120.00
C 120.00 120.00 120.52 120.09 121.00 120.00
C 121.77 117.42 121.44 118.78 123.00 119.00
C 124.41 118.71 125.89 119.22 127.00 120.00
C 126.03 113.67 134.74 114.82 139.25 110.25 C 143.75 105.67 147.27 102.63 151.32 97.32 C 155.38 92.02 155.86 87.63 158.99 80.99 C 162.13 74.35 159.71 66.30 158.00 61.00
C 158.58 61.76 155.26 63.75 155.00 64.00
C 150.02 71.36 126.75 58.39 128.00 75.00
C 126.52 74.73 127.13 73.00 127.00 72.00
C 125.65 85.98 115.95 103.01 100.03 95.97 C 84.10 88.94 88.00 69.94 88.00 56.00
C 83.65 52.95 80.08 56.82 74.00 55.00
C 74.66 58.21 72.18 60.66 71.00 63.00
C 70.94 53.99 71.00 42.11 71.00 32.00
C 71.00 32.00 70.27 31.75 70.00 32.00
C 69.95 32.99 70.00 34.01 70.00 35.00 Z"/>
</g>
<g fill="None" fill-opacity="0.0" stroke="#2D0D39" stroke-opacity="0.41" stroke-width="0.3"><path d="
M 68.00 37.00 
C 67.39 43.94 68.30 51.67 68.00 58.00
C 67.93 59.39 69.42 59.69 67.00 61.00
C 67.25 61.25 67.00 62.00 67.00 62.00
C 71.85 62.50 69.77 53.52 70.00 50.00 C 70.23 46.48 70.00 38.89 70.00 35.00
C 69.91 35.32 68.14 36.60 68.00 37.00 Z"/>
</g>
<g fill="None" fill-opacity="0.0" stroke="#9C439F" stroke-opacity="0.84" stroke-width="0.3"><path d="
M 145.00 56.00 
C 145.10 54.68 145.00 53.32 145.00 52.00
C 145.00 49.34 145.05 46.66 145.00 44.00
C 144.95 41.60 144.17 38.75 144.00 37.00
C 144.00 43.29 144.77 50.43 145.00 56.00 Z"/>
</g>
<g fill="None" fill-opacity="0.0" stroke="#241931" stroke-opacity="1.00" stroke-width="0.3"><path d="
M 205.00 38.00 
C 194.28 35.69 187.11 48.59 176.00 49.00
C 175.94 59.56 174.03 71.31 175.00 82.00 C 175.97 92.69 171.83 103.68 168.33 112.33 C 164.82 120.98 158.65 131.03 147.00 128.00
C 148.44 132.82 150.07 135.74 151.67 140.33 C 153.28 144.91 157.92 147.05 159.00 152.00
C 165.08 151.05 170.28 153.64 176.00 154.00
C 206.28 124.36 205.40 79.08 205.00 38.00 Z"/>
</g>
<g fill="None" fill-opacity="0.0" stroke="#251931" stroke-opacity="1.00" stroke-width="0.3"><path d="
M 40.00 156.00 
C 41.65 156.73 42.06 157.82 44.00 158.00
C 44.50 158.05 45.00 158.00 45.00 158.00
C 57.63 152.83 69.38 144.36 69.98 129.02 C 70.57 113.69 54.62 103.01 40.00 105.00
C 45.45 96.65 37.57 84.79 39.01 75.01 C 40.45 65.22 42.27 55.11 37.00 47.00
C 32.13 47.35 34.85 46.42 34.00 44.00
C 29.50 42.82 26.87 41.60 22.74 39.26 C 18.62 36.91 15.38 40.16 12.00 38.00
C 9.17 57.76 7.60 88.76 11.25 108.75 C 14.89 128.75 27.90 142.82 42.00 153.00
C 42.40 154.08 40.73 155.89 40.00 156.00 Z"/>
</g>
<g fill="None" fill-opacity="0.0" stroke="#28272A" stroke-opacity="0.51" stroke-width="0.3"><path d="
M 49.00 44.00 
C 48.67 43.47 48.27 42.60 48.00 42.00
C 47.08 40.94 45.86 40.17 45.00 39.00
C 45.00 39.00 44.47 39.12 44.00 39.00
C 44.96 41.30 47.48 42.25 49.00 44.00 Z"/>
</g>
<g fill="None" fill-opacity="0.0" stroke="#525252" stroke-opacity="0.13" stroke-width="0.3"><path d="
M 48.00 42.00 
C 47.27 40.34 47.49 38.87 45.00 39.00
C 45.86 40.17 47.08 40.94 48.00 42.00 Z"/>
</g>
<g fill="None" fill-opacity="0.0" stroke="#FFFFFF" stroke-opacity="0.00" stroke-width="0.3"><path d="
M 5.00 49.00 
C 5.00 47.33 5.00 45.67 5.00 44.00
C 4.87 45.44 4.87 47.50 5.00 49.00 Z"/>
</g>
<g fill="None" fill-opacity="0.0" stroke="#8B2889" stroke-opacity="0.50" stroke-width="0.3"><path d="
M 145.00 52.00 
C 145.13 51.78 146.00 52.00 146.00 52.00
C 146.35 51.97 147.08 51.26 147.00 51.00
C 146.50 49.34 145.21 45.72 145.00 44.00
C 145.05 46.66 145.00 49.34 145.00 52.00 Z"/>
</g>
<g fill="None" fill-opacity="0.0" stroke="#551857" stroke-opacity="0.36" stroke-width="0.3"><path d="
M 145.00 56.00 
C 144.87 57.66 142.65 64.25 147.00 63.00
C 146.76 62.69 147.15 61.45 147.00 61.00
C 145.93 57.92 146.30 55.32 146.00 52.00
C 146.00 52.00 145.13 51.78 145.00 52.00
C 145.00 53.32 145.10 54.68 145.00 56.00 Z"/>
</g>
<g fill="None" fill-opacity="0.0" stroke="#412846" stroke-opacity="0.18" stroke-width="0.3"><path d="
M 58.00 59.00 
C 58.12 59.26 58.97 59.65 59.00 60.00
C 59.00 60.00 58.77 60.66 59.00 61.00
C 59.16 61.23 60.50 61.00 61.00 61.00
C 60.09 60.68 59.53 58.22 58.00 58.00
C 58.00 58.00 57.81 58.59 58.00 59.00 Z"/>
</g>
<g fill="None" fill-opacity="0.0" stroke="#26013B" stroke-opacity="0.07" stroke-width="0.3"><path d="
M 66.00 61.00 
C 66.50 61.00 67.00 61.00 67.00 61.00
C 69.42 59.69 67.93 59.39 68.00 58.00
C 67.34 59.74 67.01 59.64 66.00 61.00 Z"/>
</g>
<g fill="None" fill-opacity="0.0" stroke="#220B32" stroke-opacity="1.00" stroke-width="0.3"><path d="
M 91.00 120.00 
C 88.99 115.48 78.85 112.90 73.70 107.30 C 68.54 101.71 62.62 97.50 58.98 90.02 C 55.33 82.55 52.76 72.04 54.00 63.00
C 56.20 62.31 57.56 61.47 59.00 60.00
C 58.97 59.65 58.12 59.26 58.00 59.00
C 46.85 59.18 50.31 73.14 51.22 80.78 C 52.13 88.41 59.80 95.03 60.00 103.00
C 64.04 102.04 69.30 103.97 68.00 109.00
C 76.34 106.87 83.64 127.50 91.00 120.00 Z"/>
</g>
<g fill="None" fill-opacity="0.0" stroke="#27143A" stroke-opacity="0.27" stroke-width="0.3"><path d="
M 156.00 61.00 
C 156.44 60.99 156.93 62.03 158.00 61.00
C 158.26 60.75 159.11 59.38 159.00 59.00
C 158.74 59.44 156.58 60.75 156.00 61.00 Z"/>
</g>
<g fill="None" fill-opacity="0.0" stroke="#210D32" stroke-opacity="1.00" stroke-width="0.3"><path d="
M 158.00 61.00 
C 159.71 66.30 162.13 74.35 158.99 80.99 C 155.86 87.63 155.38 92.02 151.32 97.32 C 147.27 102.63 143.75 105.67 139.25 110.25 C 134.74 114.82 126.03 113.67 127.00 120.00
C 134.63 120.07 138.70 115.37 143.75 110.75 C 148.80 106.13 153.36 103.79 156.68 97.68 C 160.00 91.57 159.21 82.60 165.00 80.00
C 165.00 74.67 165.00 69.33 165.00 64.00
C 161.52 65.16 161.16 58.74 159.00 59.00
C 159.11 59.38 158.26 60.75 158.00 61.00 Z"/>
</g>
<g fill="None" fill-opacity="0.0" stroke="#593967" stroke-opacity="0.53" stroke-width="0.3"><path d="
M 67.00 62.00 
C 67.00 62.00 67.25 61.25 67.00 61.00
C 67.00 61.00 66.50 61.00 66.00 61.00
C 64.33 61.00 62.67 61.00 61.00 61.00
C 60.50 61.00 59.16 61.23 59.00 61.00
C 59.87 63.92 65.42 63.63 67.00 62.00 Z"/>
</g>
<g fill="None" fill-opacity="0.0" stroke="#5C386C" stroke-opacity="0.50" stroke-width="0.3"><path d="
M 147.00 63.00 
C 148.13 64.46 153.39 64.51 155.00 64.00
C 155.26 63.75 158.58 61.76 158.00 61.00
C 156.93 62.03 156.44 60.99 156.00 61.00
C 153.05 61.09 149.67 60.75 147.00 61.00
C 147.15 61.45 146.76 62.69 147.00 63.00 Z"/>
</g>
<g fill="None" fill-opacity="0.0" stroke="#FFFFFF" stroke-opacity="0.01" stroke-width="0.3"><path d="
M 4.00 74.00 
C 4.24 73.11 4.88 72.43 5.00 71.00
C 4.81 71.88 4.01 72.49 4.00 74.00 Z"/>
</g>
<g fill="None" fill-opacity="0.0" stroke="#727272" stroke-opacity="0.07" stroke-width="0.3"><path d="
M 208.00 78.00 
C 208.07 76.21 208.14 72.91 208.00 71.00
C 207.93 73.30 207.84 75.71 208.00 78.00 Z"/>
</g>
<g fill="None" fill-opacity="0.0" stroke="#656565" stroke-opacity="0.01" stroke-width="0.3"><path d="
M 4.00 82.00 
C 4.02 82.10 5.00 82.00 5.00 82.00
C 5.04 79.55 4.75 77.87 4.00 76.00
C 4.00 77.97 3.83 80.03 4.00 82.00 Z"/>
</g>
<g fill="None" fill-opacity="0.0" stroke="#FFFFFF" stroke-opacity="0.01" stroke-width="0.3"><path d="
M 5.00 85.00 
C 5.00 84.00 4.98 83.00 5.00 82.00
C 5.00 82.00 4.02 82.10 4.00 82.00
C 4.11 83.26 4.84 84.27 5.00 85.00 Z"/>
</g>
<g fill="None" fill-opacity="0.0" stroke="#919191" stroke-opacity="0.03" stroke-width="0.3"><path d="
M 6.00 99.00 
C 6.81 97.82 5.12 96.54 5.00 96.00
C 5.13 97.47 5.65 98.02 6.00 99.00 Z"/>
</g>
<g fill="None" fill-opacity="0.0" stroke="#321B47" stroke-opacity="0.35" stroke-width="0.3"><path d="
M 121.00 120.00 
C 121.85 119.85 122.20 119.16 123.00 119.00
C 121.44 118.78 121.77 117.42 121.00 120.00 Z"/>
</g>
<g fill="None" fill-opacity="0.0" stroke="#32043B" stroke-opacity="0.24" stroke-width="0.3"><path d="
M 118.00 122.00 
C 118.51 121.47 119.42 120.55 120.00 120.00
C 118.55 119.38 117.37 120.50 118.00 122.00 Z"/>
</g>
<g fill="None" fill-opacity="0.0" stroke="#41174A" stroke-opacity="0.60" stroke-width="0.3"><path d="
M 98.00 126.00 
C 97.42 128.20 96.27 130.82 96.00 133.00
C 96.04 133.81 97.71 135.43 97.00 137.00
C 99.76 133.31 99.78 126.08 98.00 122.00
C 97.75 123.27 98.33 124.75 98.00 126.00 Z"/>
</g>
<g fill="None" fill-opacity="0.0" stroke="#2F0C3D" stroke-opacity="0.38" stroke-width="0.3"><path d="
M 116.00 129.00 
C 116.03 130.49 118.04 133.77 117.00 136.00
C 118.26 135.92 117.56 133.94 119.00 134.00
C 118.68 130.36 118.00 126.93 118.00 123.00
C 115.34 124.21 116.19 126.53 116.00 129.00 Z"/>
</g>
<g fill="None" fill-opacity="0.0" stroke="#381649" stroke-opacity="0.52" stroke-width="0.3"><path d="
M 115.00 177.00 
C 121.22 172.69 118.39 165.08 118.00 158.00 C 117.61 150.92 119.65 141.44 119.00 134.00
C 117.56 133.94 118.26 135.92 117.00 136.00
C 118.04 133.77 116.03 130.49 116.00 129.00
C 115.58 134.54 116.09 141.57 116.00 147.00 C 115.91 152.43 115.82 160.07 116.00 165.00 C 116.18 169.93 115.06 176.95 115.00 177.00 Z"/>
</g>
<g fill="None" fill-opacity="0.0" stroke="#27262F" stroke-opacity="0.44" stroke-width="0.3"><path d="
M 18.00 134.00 
C 18.93 135.41 19.05 135.04 20.00 136.00
C 19.73 135.34 18.00 134.01 18.00 134.00 Z"/>
</g>
<g fill="None" fill-opacity="0.0" stroke="#2C0031" stroke-opacity="0.08" stroke-width="0.3"><path d="
M 96.00 137.00 
C 96.13 137.22 97.00 137.00 97.00 137.00
C 97.71 135.43 96.04 133.81 96.00 133.00
C 95.84 134.28 96.00 135.70 96.00 137.00 Z"/>
</g>
<g fill="None" fill-opacity="0.0" stroke="#2D0130" stroke-opacity="0.25" stroke-width="0.3"><path d="
M 97.00 151.00 
C 97.07 150.11 97.96 149.33 98.00 149.00
C 97.74 145.21 97.36 141.01 97.00 137.00
C 97.00 137.00 96.13 137.22 96.00 137.00
C 96.00 141.61 95.35 147.12 97.00 151.00 Z"/>
</g>
<g fill="None" fill-opacity="0.0" stroke="#1B1825" stroke-opacity="0.74" stroke-width="0.3"><path d="
M 25.00 144.00 
C 28.18 147.41 32.31 150.14 35.00 154.00
C 35.00 154.00 35.59 153.81 36.00 154.00
C 33.20 149.47 28.02 145.48 24.00 142.00
C 24.28 142.25 24.76 143.60 25.00 144.00 Z"/>
</g>
<g fill="None" fill-opacity="0.0" stroke="#26222B" stroke-opacity="0.44" stroke-width="0.3"><path d="
M 136.00 145.00 
C 137.55 145.33 138.12 147.08 139.00 148.00
C 140.18 149.00 140.83 149.26 142.00 150.00
C 142.32 150.32 140.17 146.88 139.25 145.75 C 138.33 144.62 134.21 143.36 136.00 145.00 Z"/>
</g>
<g fill="None" fill-opacity="0.0" stroke="#16141F" stroke-opacity="0.33" stroke-width="0.3"><path d="
M 35.00 154.00 
C 32.31 150.14 28.18 147.41 25.00 144.00
C 26.92 147.15 31.59 152.33 35.00 154.00 Z"/>
</g>
<g fill="None" fill-opacity="0.0" stroke="#5B5B5B" stroke-opacity="0.03" stroke-width="0.3"><path d="
M 139.00 148.00 
C 138.12 147.08 137.55 145.33 136.00 145.00
C 136.88 146.37 137.76 146.95 139.00 148.00 Z"/>
</g>
<g fill="None" fill-opacity="0.0" stroke="#393741" stroke-opacity="0.37" stroke-width="0.3"><path d="
M 178.00 155.00 
C 179.02 154.55 180.72 154.74 182.75 152.75 C 184.78 150.77 184.71 148.67 186.00 147.00
C 183.03 149.27 180.67 152.70 178.00 155.00 Z"/>
</g>
<g fill="None" fill-opacity="0.0" stroke="#282B2F" stroke-opacity="0.34" stroke-width="0.3"><path d="
M 70.00 150.00 
C 72.54 148.83 70.64 149.40 72.00 148.00
C 70.99 148.67 70.77 149.06 70.00 150.00 Z"/>
</g>
<g fill="None" fill-opacity="0.0" stroke="#2B0E36" stroke-opacity="0.49" stroke-width="0.3"><path d="
M 97.00 151.00 
C 96.96 151.50 97.18 152.58 97.00 153.00
C 97.22 153.95 96.61 155.74 98.00 156.00
C 97.88 153.67 98.16 151.32 98.00 149.00
C 97.96 149.33 97.07 150.11 97.00 151.00 Z"/>
</g>
<g fill="None" fill-opacity="0.0" stroke="#343235" stroke-opacity="0.24" stroke-width="0.3"><path d="
M 44.00 159.00 
C 43.77 158.85 44.00 158.00 44.00 158.00
C 42.06 157.82 41.65 156.73 40.00 156.00
C 38.96 155.54 38.06 155.66 37.00 155.00
C 38.64 157.91 40.51 158.36 44.00 159.00 Z"/>
</g>
<g fill="None" fill-opacity="0.0" stroke="#49424C" stroke-opacity="0.52" stroke-width="0.3"><path d="
M 44.00 159.00 
C 45.92 159.35 46.46 159.01 48.00 159.00
C 46.92 158.64 46.75 157.79 45.00 158.00
C 45.00 158.00 44.50 158.05 44.00 158.00
C 44.00 158.00 43.77 158.85 44.00 159.00 Z"/>
</g>
<g fill="None" fill-opacity="0.0" stroke="#41204B" stroke-opacity="0.50" stroke-width="0.3"><path d="
M 97.00 172.00 
C 97.54 171.19 98.00 171.33 98.00 170.00
C 98.01 167.66 95.93 171.90 97.00 172.00 Z"/>
</g>
<g fill="None" fill-opacity="0.0" stroke="#3F214F" stroke-opacity="0.75" stroke-width="0.3"><path d="
M 97.00 172.00 
C 97.00 172.00 97.02 172.50 97.00 173.00
C 100.07 174.84 99.25 170.14 98.00 170.00
C 98.00 171.33 97.54 171.19 97.00 172.00 Z"/>
</g>
<g fill="#000000" fill-opacity="0.00" stroke="None">
<path d="
M 0.00 182.00 
L 216.00 182.00
L 216.00 0.00
L 115.00 0.00
C 116.62 1.45 119.32 1.64 121.00 3.00
C 121.30 3.24 122.00 3.00 122.00 3.00
C 124.36 3.55 126.24 4.53 128.00 6.00
C 128.28 6.23 128.77 6.72 129.00 7.00
C 132.15 8.12 135.37 9.66 137.00 13.00
C 137.20 13.40 137.00 14.00 137.00 14.00
C 139.57 14.66 139.00 15.81 140.00 18.00
C 145.35 25.62 149.06 40.94 147.00 51.00
C 147.08 51.26 146.35 51.97 146.00 52.00
C 146.30 55.32 145.93 57.92 147.00 61.00
C 149.67 60.75 153.05 61.09 156.00 61.00
C 156.58 60.75 158.74 59.44 159.00 59.00
C 161.18 55.38 158.30 50.26 162.75 47.75 C 167.21 45.25 167.99 41.78 170.00 38.00
C 175.36 39.69 178.87 32.90 183.25 32.20 C 187.62 31.50 193.41 30.86 198.00 28.00
C 199.85 27.38 199.21 27.40 201.00 28.00
C 209.98 29.29 208.68 40.70 208.60 47.74 C 208.51 54.79 208.20 64.26 208.00 71.00
C 208.14 72.91 208.07 76.21 208.00 78.00
C 209.49 99.39 204.09 133.15 186.00 147.00
C 184.71 148.67 184.78 150.77 182.75 152.75 C 180.72 154.74 179.02 154.55 178.00 155.00
C 169.15 162.64 152.05 156.34 142.00 150.00
C 140.83 149.26 140.18 149.00 139.00 148.00
C 137.76 146.95 136.88 146.37 136.00 145.00
C 133.94 141.80 131.60 136.33 130.23 132.77 C 128.86 129.21 124.64 122.67 127.00 120.00
C 125.89 119.22 124.41 118.71 123.00 119.00
C 122.20 119.16 121.85 119.85 121.00 120.00
C 120.52 120.09 120.00 120.00 120.00 120.00
C 119.42 120.55 118.51 121.47 118.00 122.00
C 118.18 122.42 118.00 123.00 118.00 123.00
C 118.00 126.93 118.68 130.36 119.00 134.00
C 119.65 141.44 117.61 150.92 118.00 158.00 C 118.39 165.08 121.22 172.69 115.00 177.00
C 110.97 179.80 96.61 180.75 97.00 173.00
C 97.02 172.50 97.00 172.00 97.00 172.00
C 94.43 168.53 95.46 156.62 97.00 153.00
C 97.18 152.58 96.96 151.50 97.00 151.00
C 95.35 147.12 96.00 141.61 96.00 137.00
C 96.00 135.70 95.84 134.28 96.00 133.00
C 96.27 130.82 97.42 128.20 98.00 126.00
C 97.88 122.20 95.38 118.39 91.00 121.00
C 94.11 128.22 79.72 142.91 72.00 148.00
C 70.64 149.40 72.54 148.83 70.00 150.00
C 68.77 151.50 53.56 160.85 48.00 159.00
C 46.46 159.01 45.92 159.35 44.00 159.00
C 40.51 158.36 38.64 157.91 37.00 155.00
C 36.68 154.80 36.20 154.32 36.00 154.00
C 35.59 153.81 35.00 154.00 35.00 154.00
C 31.59 152.33 26.92 147.15 25.00 144.00
C 24.76 143.60 24.28 142.25 24.00 142.00
C 21.49 139.82 21.45 139.56 20.00 136.00
C 19.05 135.04 18.93 135.41 18.00 134.00
C 10.70 122.95 9.96 110.02 6.00 99.00
C 5.65 98.02 5.13 97.47 5.00 96.00
C 4.69 92.39 5.00 88.62 5.00 85.00
C 4.84 84.27 4.11 83.26 4.00 82.00
C 3.83 80.03 4.00 77.97 4.00 76.00
C 4.00 75.50 4.00 74.50 4.00 74.00
C 4.01 72.49 4.81 71.88 5.00 71.00
C 5.62 63.79 5.00 56.24 5.00 49.00
C 4.87 47.50 4.87 45.44 5.00 44.00
C 5.00 31.53 3.59 24.25 18.00 27.00
C 22.91 27.94 26.03 29.70 31.22 30.78 C 36.42 31.86 39.49 37.80 44.00 39.00
C 44.47 39.12 45.00 39.00 45.00 39.00
C 47.49 38.87 47.27 40.34 48.00 42.00
C 48.27 42.60 48.67 43.47 49.00 44.00
C 50.90 47.05 52.45 50.09 56.00 50.00
C 53.32 53.56 59.77 55.15 58.00 58.00
C 59.53 58.22 60.09 60.68 61.00 61.00
C 62.67 61.00 64.33 61.00 66.00 61.00
C 67.01 59.64 67.34 59.74 68.00 58.00
C 68.30 51.67 67.39 43.94 68.00 37.00
C 68.24 34.24 68.49 28.38 70.00 26.00
C 70.54 25.16 71.34 24.82 72.00 24.00
C 72.41 23.31 71.97 21.38 74.00 20.00
C 74.16 19.56 74.00 19.00 74.00 19.00
C 74.88 16.76 75.96 14.28 78.00 13.00
C 78.22 12.86 78.00 12.00 78.00 12.00
C 78.88 10.21 80.49 9.07 82.00 8.00
C 83.32 7.06 84.81 6.74 86.00 6.00
C 90.34 3.31 94.11 2.15 96.00 0.00
L 0.00 0.00
L 0.00 182.00
M 193.00 28.00 
C 193.74 28.74 192.18 27.18 193.00 28.00 Z"/>
</g>
<g fill="#7D348D" fill-opacity="0.98" stroke="None">
<path d="
M 86.00 6.00 
C 85.81 6.21 79.77 14.86 78.00 13.00
C 75.96 14.28 74.88 16.76 74.00 19.00
C 77.76 16.48 72.07 26.66 71.00 28.00
C 70.97 28.50 71.00 29.00 71.00 29.00
C 71.00 30.00 71.00 31.00 71.00 32.00
C 71.00 42.11 70.94 53.99 71.00 63.00
C 72.18 60.66 74.66 58.21 74.00 55.00
C 80.08 56.82 83.65 52.95 88.00 56.00
C 88.00 45.54 87.61 30.91 97.25 24.25 C 106.89 17.59 121.44 22.71 124.33 33.67 C 127.21 44.63 128.18 59.83 127.00 72.00
C 127.13 73.00 126.52 74.73 128.00 75.00
C 126.75 58.39 150.02 71.36 155.00 64.00
C 153.39 64.51 148.13 64.46 147.00 63.00
C 142.65 64.25 144.87 57.66 145.00 56.00
C 144.77 50.43 144.00 43.29 144.00 37.00
C 144.00 31.63 143.98 27.44 142.00 23.00
C 138.42 17.45 131.60 9.56 128.00 6.00
C 126.24 4.53 124.36 3.55 122.00 3.00
C 124.31 6.44 116.84 3.85 121.00 3.00
C 119.32 1.64 116.62 1.45 115.00 0.00
L 96.00 0.00
C 94.11 2.15 90.34 3.31 86.00 6.00 Z"/>
</g>
<g fill="#553861" fill-opacity="0.57" stroke="None">
<path d="
M 122.00 3.00 
C 122.00 3.00 121.30 3.24 121.00 3.00
C 116.84 3.85 124.31 6.44 122.00 3.00 Z"/>
</g>
<g fill="#41164A" fill-opacity="0.37" stroke="None">
<path d="
M 82.00 8.00 
C 80.57 9.20 79.59 10.89 78.00 12.00
C 78.00 12.00 78.22 12.86 78.00 13.00
C 79.77 14.86 85.81 6.21 86.00 6.00
C 84.81 6.74 83.32 7.06 82.00 8.00 Z"/>
</g>
<g fill="#5F3B68" fill-opacity="0.59" stroke="None">
<path d="
M 142.00 23.00 
C 141.29 21.41 140.73 19.60 140.00 18.00
C 139.00 15.81 139.57 14.66 137.00 14.00
C 134.68 13.03 133.73 10.35 132.00 9.00
C 130.78 8.22 129.88 8.09 129.00 7.00
C 128.77 6.72 128.28 6.23 128.00 6.00
C 131.60 9.56 138.42 17.45 142.00 23.00 Z"/>
</g>
<g fill="#3D083E" fill-opacity="0.11" stroke="None">
<path d="
M 132.00 9.00 
C 133.80 10.15 135.29 11.81 137.00 13.00
C 135.37 9.66 132.15 8.12 129.00 7.00
C 129.88 8.09 130.78 8.22 132.00 9.00 Z"/>
</g>
<g fill="#E366E0" fill-opacity="0.01" stroke="None">
<path d="
M 78.00 12.00 
C 79.59 10.89 80.57 9.20 82.00 8.00
C 80.49 9.07 78.88 10.21 78.00 12.00 Z"/>
</g>
<g fill="#3B1A40" fill-opacity="0.30" stroke="None">
<path d="
M 137.00 14.00 
C 137.00 14.00 137.20 13.40 137.00 13.00
C 135.29 11.81 133.80 10.15 132.00 9.00
C 133.73 10.35 134.68 13.03 137.00 14.00 Z"/>
</g>
<g fill="#58355F" fill-opacity="0.53" stroke="None">
<path d="
M 74.00 19.00 
C 74.00 19.00 74.16 19.56 74.00 20.00
C 73.58 21.18 72.78 23.04 72.00 24.00
C 71.34 24.82 70.54 25.16 70.00 26.00
C 70.00 26.08 71.05 27.25 71.00 28.00
C 72.07 26.66 77.76 16.48 74.00 19.00 Z"/>
</g>
<g fill="#4C1451" fill-opacity="0.16" stroke="None">
<path d="
M 142.00 23.00 
C 143.98 27.44 144.00 31.63 144.00 37.00
C 144.17 38.75 144.95 41.60 145.00 44.00
C 145.21 45.72 146.50 49.34 147.00 51.00
C 149.06 40.94 145.35 25.62 140.00 18.00
C 140.73 19.60 141.29 21.41 142.00 23.00 Z"/>
</g>
<g fill="#581557" fill-opacity="0.05" stroke="None">
<path d="
M 72.00 24.00 
C 72.78 23.04 73.58 21.18 74.00 20.00
C 71.97 21.38 72.41 23.31 72.00 24.00 Z"/>
</g>
<g fill="#210630" fill-opacity="1.00" stroke="None">
<path d="
M 88.00 56.00 
C 88.00 69.94 84.10 88.94 100.03 95.97 C 115.95 103.01 125.65 85.98 127.00 72.00
C 128.18 59.83 127.21 44.63 124.33 33.67 C 121.44 22.71 106.89 17.59 97.25 24.25 C 87.61 30.91 88.00 45.54 88.00 56.00
M 122.00 33.00 
C 125.63 47.14 122.72 61.48 123.00 76.00 C 123.28 90.52 109.74 96.19 98.00 92.00
C 90.27 76.17 88.80 51.34 94.00 35.00
C 97.28 41.28 94.28 29.62 97.00 27.00
C 105.86 22.72 115.37 26.57 122.00 33.00 Z"/>
</g>
<g fill="#100C1F" fill-opacity="1.00" stroke="None">
<path d="
M 122.00 33.00 
C 115.37 26.57 105.86 22.72 97.00 27.00
C 94.28 29.62 97.28 41.28 94.00 35.00
C 88.80 51.34 90.27 76.17 98.00 92.00
C 109.74 96.19 123.28 90.52 123.00 76.00 C 122.72 61.48 125.63 47.14 122.00 33.00 Z"/>
</g>
<g fill="#201F2A" fill-opacity="0.56" stroke="None">
<path d="
M 5.00 44.00 
C 5.00 45.67 5.00 47.33 5.00 49.00
C 5.00 56.24 5.62 63.79 5.00 71.00
C 4.88 72.43 4.24 73.11 4.00 74.00
C 4.00 74.50 4.00 75.50 4.00 76.00
C 4.75 77.87 5.04 79.55 5.00 82.00
C 4.98 83.00 5.00 84.00 5.00 85.00
C 5.00 88.62 4.69 92.39 5.00 96.00
C 5.12 96.54 6.81 97.82 6.00 99.00
C 6.08 93.03 7.67 87.29 7.00 80.00 C 6.33 72.71 7.83 65.64 7.00 58.00 C 6.17 50.36 8.55 44.19 7.00 36.00 C 5.45 27.81 13.56 27.51 18.00 27.00
C 3.59 24.25 5.00 31.53 5.00 44.00 Z"/>
</g>
<g fill="#542161" fill-opacity="0.13" stroke="None">
<path d="
M 68.00 37.00 
C 68.14 36.60 69.91 35.32 70.00 35.00
C 70.00 34.01 69.95 32.99 70.00 32.00
C 70.09 30.30 69.95 30.13 71.00 29.00
C 71.00 29.00 70.97 28.50 71.00 28.00
C 71.05 27.25 70.00 26.08 70.00 26.00
C 68.49 28.38 68.24 34.24 68.00 37.00 Z"/>
</g>
<g fill="#1B1727" fill-opacity="0.96" stroke="None">
<path d="
M 6.00 99.00 
C 9.96 110.02 10.70 122.95 18.00 134.00
C 18.00 134.01 19.73 135.34 20.00 136.00
C 21.45 139.56 21.49 139.82 24.00 142.00
C 28.02 145.48 33.20 149.47 36.00 154.00
C 36.20 154.32 36.68 154.80 37.00 155.00
C 38.06 155.66 38.96 155.54 40.00 156.00
C 40.73 155.89 42.40 154.08 42.00 153.00
C 27.90 142.82 14.89 128.75 11.25 108.75 C 7.60 88.76 9.17 57.76 12.00 38.00
C 15.38 40.16 18.62 36.91 22.74 39.26 C 26.87 41.60 29.50 42.82 34.00 44.00
C 34.85 46.42 32.13 47.35 37.00 47.00
C 42.27 55.11 40.45 65.22 39.01 75.01 C 37.57 84.79 45.45 96.65 40.00 105.00
C 54.62 103.01 70.57 113.69 69.98 129.02 C 69.38 144.36 57.63 152.83 45.00 158.00
C 46.75 157.79 46.92 158.64 48.00 159.00
C 53.56 160.85 68.77 151.50 70.00 150.00
C 70.77 149.06 70.99 148.67 72.00 148.00
C 79.72 142.91 94.11 128.22 91.00 121.00
C 90.82 120.58 91.00 120.00 91.00 120.00
C 83.64 127.50 76.34 106.87 68.00 109.00
C 69.30 103.97 64.04 102.04 60.00 103.00
C 59.80 95.03 52.13 88.41 51.22 80.78 C 50.31 73.14 46.85 59.18 58.00 59.00
C 57.81 58.59 58.00 58.00 58.00 58.00
C 59.77 55.15 53.32 53.56 56.00 50.00
C 52.45 50.09 50.90 47.05 49.00 44.00
C 47.48 42.25 44.96 41.30 44.00 39.00
C 39.49 37.80 36.42 31.86 31.22 30.78 C 26.03 29.70 22.91 27.94 18.00 27.00
C 13.56 27.51 5.45 27.81 7.00 36.00 C 8.55 44.19 6.17 50.36 7.00 58.00 C 7.83 65.64 6.33 72.71 7.00 80.00 C 7.67 87.29 6.08 93.03 6.00 99.00 Z"/>
</g>
<g fill="#494949" fill-opacity="0.02" stroke="None">
<path d="
M 198.00 28.00 
C 198.84 27.88 200.16 27.88 201.00 28.00
C 199.21 27.40 199.85 27.38 198.00 28.00 Z"/>
</g>
<g fill="#FFFFFF" fill-opacity="0.00" stroke="None">
<path d="
M 193.00 28.00 
C 192.18 27.18 193.74 28.74 193.00 28.00 Z"/>
</g>
<g fill="#1B1927" fill-opacity="0.95" stroke="None">
<path d="
M 159.00 59.00 
C 161.16 58.74 161.52 65.16 165.00 64.00
C 165.00 69.33 165.00 74.67 165.00 80.00
C 159.21 82.60 160.00 91.57 156.68 97.68 C 153.36 103.79 148.80 106.13 143.75 110.75 C 138.70 115.37 134.63 120.07 127.00 120.00
C 124.64 122.67 128.86 129.21 130.23 132.77 C 131.60 136.33 133.94 141.80 136.00 145.00
C 134.21 143.36 138.33 144.62 139.25 145.75 C 140.17 146.88 142.32 150.32 142.00 150.00
C 152.05 156.34 169.15 162.64 178.00 155.00
C 180.67 152.70 183.03 149.27 186.00 147.00
C 204.09 133.15 209.49 99.39 208.00 78.00
C 207.84 75.71 207.93 73.30 208.00 71.00
C 208.20 64.26 208.51 54.79 208.60 47.74 C 208.68 40.70 209.98 29.29 201.00 28.00
C 200.16 27.88 198.84 27.88 198.00 28.00
C 193.41 30.86 187.62 31.50 183.25 32.20 C 178.87 32.90 175.36 39.69 170.00 38.00
C 167.99 41.78 167.21 45.25 162.75 47.75 C 158.30 50.26 161.18 55.38 159.00 59.00
M 205.00 38.00 
C 205.40 79.08 206.28 124.36 176.00 154.00
C 170.28 153.64 165.08 151.05 159.00 152.00
C 157.92 147.05 153.28 144.91 151.67 140.33 C 150.07 135.74 148.44 132.82 147.00 128.00
C 158.65 131.03 164.82 120.98 168.33 112.33 C 171.83 103.68 175.97 92.69 175.00 82.00 C 174.03 71.31 175.94 59.56 176.00 49.00
C 187.11 48.59 194.28 35.69 205.00 38.00 Z"/>
</g>
<g fill="#71447B" fill-opacity="0.64" stroke="None">
<path d="
M 70.00 32.00 
C 70.27 31.75 71.00 32.00 71.00 32.00
C 71.00 31.00 71.00 30.00 71.00 29.00
C 69.95 30.13 70.09 30.30 70.00 32.00 Z"/>
</g>
<g fill="#591777" fill-opacity="0.98" stroke="None">
<path d="
M 70.00 35.00 
C 70.00 38.89 70.23 46.48 70.00 50.00 C 69.77 53.52 71.85 62.50 67.00 62.00
C 65.42 63.63 59.87 63.92 59.00 61.00
C 58.77 60.66 59.00 60.00 59.00 60.00
C 57.56 61.47 56.20 62.31 54.00 63.00
C 52.76 72.04 55.33 82.55 58.98 90.02 C 62.62 97.50 68.54 101.71 73.70 107.30 C 78.85 112.90 88.99 115.48 91.00 120.00
C 91.00 120.00 90.82 120.58 91.00 121.00
C 95.38 118.39 97.88 122.20 98.00 126.00
C 98.33 124.75 97.75 123.27 98.00 122.00
C 99.78 126.08 99.76 133.31 97.00 137.00
C 97.36 141.01 97.74 145.21 98.00 149.00
C 98.16 151.32 97.88 153.67 98.00 156.00
C 96.61 155.74 97.22 153.95 97.00 153.00
C 95.46 156.62 94.43 168.53 97.00 172.00
C 95.93 171.90 98.01 167.66 98.00 170.00
C 99.25 170.14 100.07 174.84 97.00 173.00
C 96.61 180.75 110.97 179.80 115.00 177.00
C 115.06 176.95 116.18 169.93 116.00 165.00 C 115.82 160.07 115.91 152.43 116.00 147.00 C 116.09 141.57 115.58 134.54 116.00 129.00
C 116.19 126.53 115.34 124.21 118.00 123.00
C 118.00 123.00 118.18 122.42 118.00 122.00
C 117.37 120.50 118.55 119.38 120.00 120.00
C 120.00 120.00 120.52 120.09 121.00 120.00
C 121.77 117.42 121.44 118.78 123.00 119.00
C 124.41 118.71 125.89 119.22 127.00 120.00
C 126.03 113.67 134.74 114.82 139.25 110.25 C 143.75 105.67 147.27 102.63 151.32 97.32 C 155.38 92.02 155.86 87.63 158.99 80.99 C 162.13 74.35 159.71 66.30 158.00 61.00
C 158.58 61.76 155.26 63.75 155.00 64.00
C 150.02 71.36 126.75 58.39 128.00 75.00
C 126.52 74.73 127.13 73.00 127.00 72.00
C 125.65 85.98 115.95 103.01 100.03 95.97 C 84.10 88.94 88.00 69.94 88.00 56.00
C 83.65 52.95 80.08 56.82 74.00 55.00
C 74.66 58.21 72.18 60.66 71.00 63.00
C 70.94 53.99 71.00 42.11 71.00 32.00
C 71.00 32.00 70.27 31.75 70.00 32.00
C 69.95 32.99 70.00 34.01 70.00 35.00 Z"/>
</g>
<g fill="#2D0D39" fill-opacity="0.41" stroke="None">
<path d="
M 68.00 37.00 
C 67.39 43.94 68.30 51.67 68.00 58.00
C 67.93 59.39 69.42 59.69 67.00 61.00
C 67.25 61.25 67.00 62.00 67.00 62.00
C 71.85 62.50 69.77 53.52 70.00 50.00 C 70.23 46.48 70.00 38.89 70.00 35.00
C 69.91 35.32 68.14 36.60 68.00 37.00 Z"/>
</g>
<g fill="#9C439F" fill-opacity="0.84" stroke="None">
<path d="
M 145.00 56.00 
C 145.10 54.68 145.00 53.32 145.00 52.00
C 145.00 49.34 145.05 46.66 145.00 44.00
C 144.95 41.60 144.17 38.75 144.00 37.00
C 144.00 43.29 144.77 50.43 145.00 56.00 Z"/>
</g>
<g fill="#241931" fill-opacity="1.00" stroke="None">
<path d="
M 205.00 38.00 
C 194.28 35.69 187.11 48.59 176.00 49.00
C 175.94 59.56 174.03 71.31 175.00 82.00 C 175.97 92.69 171.83 103.68 168.33 112.33 C 164.82 120.98 158.65 131.03 147.00 128.00
C 148.44 132.82 150.07 135.74 151.67 140.33 C 153.28 144.91 157.92 147.05 159.00 152.00
C 165.08 151.05 170.28 153.64 176.00 154.00
C 206.28 124.36 205.40 79.08 205.00 38.00 Z"/>
</g>
<g fill="#251931" fill-opacity="1.00" stroke="None">
<path d="
M 40.00 156.00 
C 41.65 156.73 42.06 157.82 44.00 158.00
C 44.50 158.05 45.00 158.00 45.00 158.00
C 57.63 152.83 69.38 144.36 69.98 129.02 C 70.57 113.69 54.62 103.01 40.00 105.00
C 45.45 96.65 37.57 84.79 39.01 75.01 C 40.45 65.22 42.27 55.11 37.00 47.00
C 32.13 47.35 34.85 46.42 34.00 44.00
C 29.50 42.82 26.87 41.60 22.74 39.26 C 18.62 36.91 15.38 40.16 12.00 38.00
C 9.17 57.76 7.60 88.76 11.25 108.75 C 14.89 128.75 27.90 142.82 42.00 153.00
C 42.40 154.08 40.73 155.89 40.00 156.00 Z"/>
</g>
<g fill="#28272A" fill-opacity="0.51" stroke="None">
<path d="
M 49.00 44.00 
C 48.67 43.47 48.27 42.60 48.00 42.00
C 47.08 40.94 45.86 40.17 45.00 39.00
C 45.00 39.00 44.47 39.12 44.00 39.00
C 44.96 41.30 47.48 42.25 49.00 44.00 Z"/>
</g>
<g fill="#525252" fill-opacity="0.13" stroke="None">
<path d="
M 48.00 42.00 
C 47.27 40.34 47.49 38.87 45.00 39.00
C 45.86 40.17 47.08 40.94 48.00 42.00 Z"/>
</g>
<g fill="#FFFFFF" fill-opacity="0.00" stroke="None">
<path d="
M 5.00 49.00 
C 5.00 47.33 5.00 45.67 5.00 44.00
C 4.87 45.44 4.87 47.50 5.00 49.00 Z"/>
</g>
<g fill="#8B2889" fill-opacity="0.50" stroke="None">
<path d="
M 145.00 52.00 
C 145.13 51.78 146.00 52.00 146.00 52.00
C 146.35 51.97 147.08 51.26 147.00 51.00
C 146.50 49.34 145.21 45.72 145.00 44.00
C 145.05 46.66 145.00 49.34 145.00 52.00 Z"/>
</g>
<g fill="#551857" fill-opacity="0.36" stroke="None">
<path d="
M 145.00 56.00 
C 144.87 57.66 142.65 64.25 147.00 63.00
C 146.76 62.69 147.15 61.45 147.00 61.00
C 145.93 57.92 146.30 55.32 146.00 52.00
C 146.00 52.00 145.13 51.78 145.00 52.00
C 145.00 53.32 145.10 54.68 145.00 56.00 Z"/>
</g>
<g fill="#412846" fill-opacity="0.18" stroke="None">
<path d="
M 58.00 59.00 
C 58.12 59.26 58.97 59.65 59.00 60.00
C 59.00 60.00 58.77 60.66 59.00 61.00
C 59.16 61.23 60.50 61.00 61.00 61.00
C 60.09 60.68 59.53 58.22 58.00 58.00
C 58.00 58.00 57.81 58.59 58.00 59.00 Z"/>
</g>
<g fill="#26013B" fill-opacity="0.07" stroke="None">
<path d="
M 66.00 61.00 
C 66.50 61.00 67.00 61.00 67.00 61.00
C 69.42 59.69 67.93 59.39 68.00 58.00
C 67.34 59.74 67.01 59.64 66.00 61.00 Z"/>
</g>
<g fill="#220B32" fill-opacity="1.00" stroke="None">
<path d="
M 91.00 120.00 
C 88.99 115.48 78.85 112.90 73.70 107.30 C 68.54 101.71 62.62 97.50 58.98 90.02 C 55.33 82.55 52.76 72.04 54.00 63.00
C 56.20 62.31 57.56 61.47 59.00 60.00
C 58.97 59.65 58.12 59.26 58.00 59.00
C 46.85 59.18 50.31 73.14 51.22 80.78 C 52.13 88.41 59.80 95.03 60.00 103.00
C 64.04 102.04 69.30 103.97 68.00 109.00
C 76.34 106.87 83.64 127.50 91.00 120.00 Z"/>
</g>
<g fill="#27143A" fill-opacity="0.27" stroke="None">
<path d="
M 156.00 61.00 
C 156.44 60.99 156.93 62.03 158.00 61.00
C 158.26 60.75 159.11 59.38 159.00 59.00
C 158.74 59.44 156.58 60.75 156.00 61.00 Z"/>
</g>
<g fill="#210D32" fill-opacity="1.00" stroke="None">
<path d="
M 158.00 61.00 
C 159.71 66.30 162.13 74.35 158.99 80.99 C 155.86 87.63 155.38 92.02 151.32 97.32 C 147.27 102.63 143.75 105.67 139.25 110.25 C 134.74 114.82 126.03 113.67 127.00 120.00
C 134.63 120.07 138.70 115.37 143.75 110.75 C 148.80 106.13 153.36 103.79 156.68 97.68 C 160.00 91.57 159.21 82.60 165.00 80.00
C 165.00 74.67 165.00 69.33 165.00 64.00
C 161.52 65.16 161.16 58.74 159.00 59.00
C 159.11 59.38 158.26 60.75 158.00 61.00 Z"/>
</g>
<g fill="#593967" fill-opacity="0.53" stroke="None">
<path d="
M 67.00 62.00 
C 67.00 62.00 67.25 61.25 67.00 61.00
C 67.00 61.00 66.50 61.00 66.00 61.00
C 64.33 61.00 62.67 61.00 61.00 61.00
C 60.50 61.00 59.16 61.23 59.00 61.00
C 59.87 63.92 65.42 63.63 67.00 62.00 Z"/>
</g>
<g fill="#5C386C" fill-opacity="0.50" stroke="None">
<path d="
M 147.00 63.00 
C 148.13 64.46 153.39 64.51 155.00 64.00
C 155.26 63.75 158.58 61.76 158.00 61.00
C 156.93 62.03 156.44 60.99 156.00 61.00
C 153.05 61.09 149.67 60.75 147.00 61.00
C 147.15 61.45 146.76 62.69 147.00 63.00 Z"/>
</g>
<g fill="#FFFFFF" fill-opacity="0.01" stroke="None">
<path d="
M 4.00 74.00 
C 4.24 73.11 4.88 72.43 5.00 71.00
C 4.81 71.88 4.01 72.49 4.00 74.00 Z"/>
</g>
<g fill="#727272" fill-opacity="0.07" stroke="None">
<path d="
M 208.00 78.00 
C 208.07 76.21 208.14 72.91 208.00 71.00
C 207.93 73.30 207.84 75.71 208.00 78.00 Z"/>
</g>
<g fill="#656565" fill-opacity="0.01" stroke="None">
<path d="
M 4.00 82.00 
C 4.02 82.10 5.00 82.00 5.00 82.00
C 5.04 79.55 4.75 77.87 4.00 76.00
C 4.00 77.97 3.83 80.03 4.00 82.00 Z"/>
</g>
<g fill="#FFFFFF" fill-opacity="0.01" stroke="None">
<path d="
M 5.00 85.00 
C 5.00 84.00 4.98 83.00 5.00 82.00
C 5.00 82.00 4.02 82.10 4.00 82.00
C 4.11 83.26 4.84 84.27 5.00 85.00 Z"/>
</g>
<g fill="#919191" fill-opacity="0.03" stroke="None">
<path d="
M 6.00 99.00 
C 6.81 97.82 5.12 96.54 5.00 96.00
C 5.13 97.47 5.65 98.02 6.00 99.00 Z"/>
</g>
<g fill="#321B47" fill-opacity="0.35" stroke="None">
<path d="
M 121.00 120.00 
C 121.85 119.85 122.20 119.16 123.00 119.00
C 121.44 118.78 121.77 117.42 121.00 120.00 Z"/>
</g>
<g fill="#32043B" fill-opacity="0.24" stroke="None">
<path d="
M 118.00 122.00 
C 118.51 121.47 119.42 120.55 120.00 120.00
C 118.55 119.38 117.37 120.50 118.00 122.00 Z"/>
</g>
<g fill="#41174A" fill-opacity="0.60" stroke="None">
<path d="
M 98.00 126.00 
C 97.42 128.20 96.27 130.82 96.00 133.00
C 96.04 133.81 97.71 135.43 97.00 137.00
C 99.76 133.31 99.78 126.08 98.00 122.00
C 97.75 123.27 98.33 124.75 98.00 126.00 Z"/>
</g>
<g fill="#2F0C3D" fill-opacity="0.38" stroke="None">
<path d="
M 116.00 129.00 
C 116.03 130.49 118.04 133.77 117.00 136.00
C 118.26 135.92 117.56 133.94 119.00 134.00
C 118.68 130.36 118.00 126.93 118.00 123.00
C 115.34 124.21 116.19 126.53 116.00 129.00 Z"/>
</g>
<g fill="#381649" fill-opacity="0.52" stroke="None">
<path d="
M 115.00 177.00 
C 121.22 172.69 118.39 165.08 118.00 158.00 C 117.61 150.92 119.65 141.44 119.00 134.00
C 117.56 133.94 118.26 135.92 117.00 136.00
C 118.04 133.77 116.03 130.49 116.00 129.00
C 115.58 134.54 116.09 141.57 116.00 147.00 C 115.91 152.43 115.82 160.07 116.00 165.00 C 116.18 169.93 115.06 176.95 115.00 177.00 Z"/>
</g>
<g fill="#27262F" fill-opacity="0.44" stroke="None">
<path d="
M 18.00 134.00 
C 18.93 135.41 19.05 135.04 20.00 136.00
C 19.73 135.34 18.00 134.01 18.00 134.00 Z"/>
</g>
<g fill="#2C0031" fill-opacity="0.08" stroke="None">
<path d="
M 96.00 137.00 
C 96.13 137.22 97.00 137.00 97.00 137.00
C 97.71 135.43 96.04 133.81 96.00 133.00
C 95.84 134.28 96.00 135.70 96.00 137.00 Z"/>
</g>
<g fill="#2D0130" fill-opacity="0.25" stroke="None">
<path d="
M 97.00 151.00 
C 97.07 150.11 97.96 149.33 98.00 149.00
C 97.74 145.21 97.36 141.01 97.00 137.00
C 97.00 137.00 96.13 137.22 96.00 137.00
C 96.00 141.61 95.35 147.12 97.00 151.00 Z"/>
</g>
<g fill="#1B1825" fill-opacity="0.74" stroke="None">
<path d="
M 25.00 144.00 
C 28.18 147.41 32.31 150.14 35.00 154.00
C 35.00 154.00 35.59 153.81 36.00 154.00
C 33.20 149.47 28.02 145.48 24.00 142.00
C 24.28 142.25 24.76 143.60 25.00 144.00 Z"/>
</g>
<g fill="#26222B" fill-opacity="0.44" stroke="None">
<path d="
M 136.00 145.00 
C 137.55 145.33 138.12 147.08 139.00 148.00
C 140.18 149.00 140.83 149.26 142.00 150.00
C 142.32 150.32 140.17 146.88 139.25 145.75 C 138.33 144.62 134.21 143.36 136.00 145.00 Z"/>
</g>
<g fill="#16141F" fill-opacity="0.33" stroke="None">
<path d="
M 35.00 154.00 
C 32.31 150.14 28.18 147.41 25.00 144.00
C 26.92 147.15 31.59 152.33 35.00 154.00 Z"/>
</g>
<g fill="#5B5B5B" fill-opacity="0.03" stroke="None">
<path d="
M 139.00 148.00 
C 138.12 147.08 137.55 145.33 136.00 145.00
C 136.88 146.37 137.76 146.95 139.00 148.00 Z"/>
</g>
<g fill="#393741" fill-opacity="0.37" stroke="None">
<path d="
M 178.00 155.00 
C 179.02 154.55 180.72 154.74 182.75 152.75 C 184.78 150.77 184.71 148.67 186.00 147.00
C 183.03 149.27 180.67 152.70 178.00 155.00 Z"/>
</g>
<g fill="#282B2F" fill-opacity="0.34" stroke="None">
<path d="
M 70.00 150.00 
C 72.54 148.83 70.64 149.40 72.00 148.00
C 70.99 148.67 70.77 149.06 70.00 150.00 Z"/>
</g>
<g fill="#2B0E36" fill-opacity="0.49" stroke="None">
<path d="
M 97.00 151.00 
C 96.96 151.50 97.18 152.58 97.00 153.00
C 97.22 153.95 96.61 155.74 98.00 156.00
C 97.88 153.67 98.16 151.32 98.00 149.00
C 97.96 149.33 97.07 150.11 97.00 151.00 Z"/>
</g>
<g fill="#343235" fill-opacity="0.24" stroke="None">
<path d="
M 44.00 159.00 
C 43.77 158.85 44.00 158.00 44.00 158.00
C 42.06 157.82 41.65 156.73 40.00 156.00
C 38.96 155.54 38.06 155.66 37.00 155.00
C 38.64 157.91 40.51 158.36 44.00 159.00 Z"/>
</g>
<g fill="#49424C" fill-opacity="0.52" stroke="None">
<path d="
M 44.00 159.00 
C 45.92 159.35 46.46 159.01 48.00 159.00
C 46.92 158.64 46.75 157.79 45.00 158.00
C 45.00 158.00 44.50 158.05 44.00 158.00
C 44.00 158.00 43.77 158.85 44.00 159.00 Z"/>
</g>
<g fill="#41204B" fill-opacity="0.50" stroke="None">
<path d="
M 97.00 172.00 
C 97.54 171.19 98.00 171.33 98.00 170.00
C 98.01 167.66 95.93 171.90 97.00 172.00 Z"/>
</g>
<g fill="#3F214F" fill-opacity="0.75" stroke="None">
<path d="
M 97.00 172.00 
C 97.00 172.00 97.02 172.50 97.00 173.00
C 100.07 174.84 99.25 170.14 98.00 170.00
C 98.00 171.33 97.54 171.19 97.00 172.00 Z"/>
</g>
</svg>